<svg id="SvgjsSvg1001" width="550" height="600" xmlns="http://www.w3.org/2000/svg" version="1.1" xmlns:xlink="http://www.w3.org/1999/xlink" xmlns:svgjs="http://svgjs.com/svgjs">
<defs id="SvgjsDefs1002"></defs>
<g id="SvgjsG1008">
<svg xmlns="http://www.w3.org/2000/svg" enable-background="new 0 0 100 100" viewBox="0 0 100 100" width="550" height="700"><path fill="#E60F76" d="M23.3 23.5 25.4 71c.1 2 1.7 3.6 3.8 3.6H31c-2 0-3.7-1.6-3.8-3.6L25 23.5c-.1-2.3 1.8-4.3 4.1-4.3h-1.8c-2.3 0-4.1 2-4 4.3z" class="color34b75c svgShape"></path><path fill="#EC549C" d="M24 23.5 26.1 71c.1 2 1.7 3.6 3.8 3.6h1c-2 0-3.7-1.6-3.8-3.6L25 23.5c-.1-2.3 1.8-4.3 4.1-4.3h-1c-2.3 0-4.2 2-4.1 4.3z" class="color46c671 svgShape"></path><path fill="#f5f5f5" d="M25 23.5 27.2 71c.1 2 1.7 3.6 3.8 3.6h20.6c2.3 0 4.2-2 4.1-4.3l-2.1-47.5c-.1-2-1.7-3.6-3.8-3.6H29.1c-2.3 0-4.2 2-4.1 4.3z" class="colorf5f5f5 svgShape"></path><path fill="#ffffff" d="M53.9 72.7c-.6.6-1.4 1-2.3 1H31c-1.6 0-2.9-1.2-3-2.8l-2-44.6h26.8l2 44.1c0 .8-.3 1.7-.9 2.3z" class="colorfff svgShape"></path><path fill="#e1e5e2" d="m26 26.3-.1-2.9c0-.9.3-1.7.9-2.3.6-.7 1.5-1 2.4-1H35c.2 0 .4.1.4.3l.3 1.4c0 .2.2.3.4.3h6.4c.2 0 .4-.2.4-.4l.1-1.3c0-.2.2-.4.4-.4h6.2c1.6 0 2.9 1.2 3 2.8l.2 3.4H26z" class="colore1e5e2 svgShape"></path><path fill="#ffffff" d="m24.5 26.3.2 3.8c0 .2-.2.4-.4.4s-.3-.1-.3-.3l-.2-3.8c0-.2.2-.4.4-.4s.3.1.3.3zM24.8 32.1v.9c0 .2-.2.4-.4.4s-.3-.1-.3-.3v-.9c0-.2.2-.4.4-.4s.3.1.3.3z" class="colorfff svgShape"></path><path fill="#3c4150" d="M28.8 22.7c-.5 0-.9-.4-1-.9 0-.5.3-.9.8-.9s.9.4 1 .9c.1.5-.2.9-.8.9zm-.1-1.6c-.4 0-.7.3-.6.7 0 .4.4.7.8.7s.7-.3.6-.7c0-.4-.4-.7-.8-.7z" class="color3c4150 svgShape"></path><path fill="#3c4150" d="m29 22.1-.5-.5v-.1h.1l.5.5v.1H29z" class="color3c4150 svgShape"></path><path fill="#3c4150" d="M28.5 22.1V22l.5-.5h.1v.1l-.5.5h-.1zM50.6 21.2h-2.1c-.1 0-.1 0-.1-.1s0-.1.1-.1h2.1c.1 0 .1 0 .1.1s0 .1-.1.1zM50.7 21.9h-2.1c-.1 0-.1 0-.1-.1s0-.1.1-.1h2.1c.1 0 .1 0 .1.1s-.1.1-.1.1zM50.7 22.5h-2.1c-.1 0-.1 0-.1-.1s0-.1.1-.1h2.1c.1 0 .1 0 .1.1s0 .1-.1.1z" class="color3c4150 svgShape"></path><path fill="#ffffff" d="M42.3 20.6c0 .2-.1.4-.3.4h-3.2c-.2 0-.4-.2-.4-.4s.1-.4.3-.4h3.2c.2.1.3.2.4.4zM37.5 20.6c0 .2-.1.4-.3.4h-.3c-.2 0-.4-.2-.4-.4s.1-.4.3-.4h.3c.2.1.4.2.4.4z" class="colorfff svgShape"></path><path fill="#3c4150" d="M47.9 25.2v-.1l.7-.6-.6-.6v-.1h.1l.7.6v.1l-.8.7c0 .1 0 .1-.1 0zM30.5 25.2l-.7-.7v-.1l.8-.6h.1v.1l-.7.6.6.6v.1c0 .1 0 .1-.1 0z" class="color3c4150 svgShape"></path><path fill="#ffffff" d="M32.1 68.8h20v.9h-20z" class="colorfff svgShape"></path><path fill="#3c4150" d="M52.1 69.8h-20c-.2 0-.1-.2-.1-1 0-.1 0-.1.1-.1h20c.1 0 .1 0 .1.1v.9c0 .1 0 .1-.1.1zm-19.9-.2H52v-.7H32.2v.7z" class="color3c4150 svgShape"></path><path fill="#ffffff" d="M33 69.2c0 .6-.5 1.2-1.1 1.2-.6 0-1.2-.5-1.2-1.2 0-.6.5-1.2 1.1-1.2.6.1 1.1.6 1.2 1.2z" class="colorfff svgShape"></path><path fill="#3c4150" d="M31.9 70.5c-.7 0-1.3-.6-1.3-1.3 0-.7.5-1.3 1.2-1.3s1.3.6 1.3 1.3c0 .7-.5 1.3-1.2 1.3zm-.1-2.3c-.6 0-1 .5-1 1.1 0 .6.5 1.1 1.1 1.1.6 0 1-.5 1-1.1 0-.6-.5-1.1-1.1-1.1z" class="color3c4150 svgShape"></path><path fill="#e1e5e2" d="M42.8 69.2c0 .6-.5 1.2-1.1 1.2-.6 0-1.2-.5-1.2-1.2 0-.6.5-1.2 1.1-1.2.6.1 1.1.6 1.2 1.2z" class="colore1e5e2 svgShape"></path><path fill="#3c4150" d="M41.7 70.5c-.7 0-1.3-.6-1.3-1.3 0-.7.5-1.3 1.2-1.3s1.3.6 1.3 1.3c0 .7-.5 1.3-1.2 1.3zm-.1-2.3c-.6 0-1 .5-1 1.1 0 .6.5 1.1 1.1 1.1.6 0 1-.5 1-1.1-.1-.6-.6-1.1-1.1-1.1z" class="color3c4150 svgShape"></path><path fill="#ffffff" d="M52.6 69.2c0 .6-.5 1.2-1.1 1.2-.6 0-1.2-.5-1.2-1.2 0-.6.5-1.2 1.1-1.2.6.1 1.1.6 1.2 1.2z" class="colorfff svgShape"></path><path fill="#3c4150" d="M51.4 70.5c-.7 0-1.3-.6-1.3-1.3 0-.7.5-1.3 1.2-1.3s1.3.6 1.3 1.3c.1.7-.5 1.3-1.2 1.3zm-.1-2.3c-.6 0-1 .5-1 1.1 0 .6.5 1.1 1.1 1.1.6 0 1-.5 1-1.1 0-.6-.5-1.1-1.1-1.1z" class="color3c4150 svgShape"></path><path fill="#f5f5f5" d="m72.5 18.4.2 7.8c0 .2-.2.4-.4.4h-8.9l-2.4 2c-.1.1-.4 0-.4-.2l-.1-1.9h-1.3c-.2 0-.4-.2-.4-.4l-.2-7.8c0-.2.2-.4.4-.4h13c.3.1.5.3.5.5z" class="colorf5f5f5 svgShape"></path><path fill="#EC549C" d="m71.7 19.2.2 6c0 .2-.1.3-.3.3H60.1c-.2 0-.3-.1-.3-.3l-.2-6c0-.2.1-.3.3-.3h11.4c.2 0 .4.2.4.3zM49.1 63.2H35.6c-.9 0-1.7-.5-2.1-1.2-.2-.4-.4-.8-.4-1.2v-.2c0-1.4 1.1-2.4 2.5-2.4H49c.6 0 1.2.2 1.6.6.5.4.9 1.1.9 1.8.2 1.5-.9 2.6-2.4 2.6z" class="color46c671 svgShape"></path><path fill="#ffffff" d="m38.7 61.6-.1-1.8c0-.1 0-.1.1-.1s.1.1.1.1l.1 1.7h1c.1 0 .1.1.1.1 0 .1-.1.1-.1.1h-1c-.1.1-.2 0-.2-.1zM40.2 60.7c0-.6.3-1.1 1-1.1.6 0 1 .5 1.1 1.1 0 .6-.3 1.1-1 1.1-.6 0-1.1-.4-1.1-1.1zm1.8 0c0-.5-.3-.8-.8-.8s-.7.4-.7.8c0 .5.3.8.8.8.4 0 .7-.3.7-.8zM42.5 60.7c0-.6.4-1.1 1-1.1.2 0 .4 0 .7.2.1 0 .1.1 0 .2h-.1c-.2-.1-.4-.1-.5-.1-.5 0-.8.3-.7.8 0 .5.3.8.8.8.2 0 .3 0 .5-.1h.1c.1.1.1.2 0 .2-.2.1-.4.2-.7.2-.6 0-1-.4-1.1-1.1zM44.7 61.6l-.1-1.8c0-.1.1-.1.1-.1.1 0 .1.1.1.1l.1.9.9-1c.1-.1.1-.1.2 0s.1.1 0 .2l-.6.7.8 1c0 .1.1.1 0 .2 0 .1-.1.1-.2 0l-.8-1-.2.3v.6c0 .1-.1.1-.1.1-.1 0-.2-.1-.2-.2z" class="colorfff svgShape"></path><path fill="#e1e5e2" d="m48.8 40.7.4 10.4H34.6l-.4-10.4 7.1-6.1z" class="colore1e5e2 svgShape"></path><path fill="#EC549C" d="M50 40.9c-.1.2-.3.2-.5.2-.1 0-.3 0-.4-.1l-7.9-6.4-7.4 6.4c-.2.2-.6.2-.8-.1-.2-.2-.2-.6 0-.8l7.8-6.8c.2-.2.5-.2.7 0l8.3 6.8c.4.2.4.6.2.8z" class="color46c671 svgShape"></path><path fill="#e1e5e2" d="m47.8 35.4.2 3.1-2.1-1.6v-1.5z" class="colore1e5e2 svgShape"></path><path fill="#ffffff" d="M43.4 39.9c0 1.1-.8 1.9-1.9 1.9-1.1 0-2-.9-2-1.9 0-1.1.8-1.9 1.9-1.9 1.1 0 1.9.9 2 1.9z" class="colorfff svgShape"></path><path fill="#3c4150" d="M42.6 39.9c0 .6-.5 1.1-1.1 1.1-.6 0-1.1-.5-1.2-1.1 0-.6.5-1.1 1.1-1.1.6 0 1.2.5 1.2 1.1z" class="color3c4150 svgShape"></path><path fill="#ffffff" d="m45.3 51.1-.3-7.7h-6.8l.3 7.7z" class="colorfff svgShape"></path><path fill="#3c4150" d="M45.3 51.1h-5.9c0-.3-.3-7.1-.3-6.7H45c0 .2.3 6.9.3 6.7z" class="color3c4150 svgShape"></path><path fill="#EC549C" d="M48.6 34.3v.8c0 .1-.1.2-.2.2h-3c-.1 0-.2-.1-.2-.2v-.8c0-.1.1-.2.2-.2h3c.1-.1.2.1.2.2z" class="color46c671 svgShape"></path><path fill="#f5f5f5" d="m50.2 51.1.1 1.1H33.6v-1.1zM51.1 52.2l.1 1H32.9l-.1-1z" class="colorf5f5f5 svgShape"></path><path fill="#ffffff" d="M67.1 21.2v.5h-.5v-.5c0-.5-.5-.9-1-.9s-.9.4-.9.9v.5h-.5v-.5c0-.8.6-1.4 1.4-1.4.8-.1 1.5.6 1.5 1.4zM63.8 22l.1 2.4c0 .2.2.3.4.3h3.1c.2 0 .3-.2.3-.3l-.1-2.4c0-.2-.2-.3-.4-.3h-3.1c-.1 0-.3.1-.3.3z" class="colorfff svgShape"></path><path fill="#EC549C" d="m65.6 23.1-.1.6s0 .1.1.1h.5s.1 0 0-.1l-.1-.6c.1-.1.1-.1.1-.3 0-.2-.2-.3-.3-.3-.2 0-.3.1-.3.3 0 .2 0 .3.1.3z" class="color46c671 svgShape"></path><path fill="#f5f5f5" d="M72.2 38.3c1.3.3 2.1.7 2.8 2.2.5 1.1 2.3 5.5 1.6 7.8-.5 1.7-4.4 6.2-4.4 6.2l-1.3-2 2.7-4.7-1.5-6.2c.1 0-.6-3.5.1-3.3z" class="colorf5f5f5 svgShape"></path><path fill="#f6e6d9" d="m60.7 78.2-.5 2.5 2.4-.2.7-2.2c-.7-.1-2.1.2-2.6-.1z" class="color8fdaba svgShape"></path><path fill="#3c4150" d="M60.8 79.7c0-.2-.2-.4-.4-.4s-.3.1-.3.2l-.3.7-2.4.8c-.3.1-.5.4-.6.7 0 .1 0 .1.1.1l6.7.1c.1 0 .1 0 .1-.1v-.9s0-1.1-.9-1.4c0 0-.5 1-1.4.8-.6.1-.6-.6-.6-.6z" class="color3c4150 svgShape"></path><path fill="#75819e" d="M62.9 80.9c-.1.2 0 .4 0 .5h.7v-.5s0-.3-.1-.5c-.2 0-.5.2-.6.5z" class="color75819e svgShape"></path><path fill="#f6e6d9" d="M72.7 78.3v2.2l-2.3.2v-2.5z" class="color8fdaba svgShape"></path><path fill="#3c4150" d="M70.6 79.7c0-.2-.2-.4-.4-.4s-.3.1-.3.2l-.3.7-2.4.8c-.3.1-.5.4-.6.7 0 .1 0 .1.1.1l6.7.1c.1 0 .1 0 .1-.1v-.9s0-1.1-.9-1.4c0 0-.5 1-1.4.8-.6.1-.6-.6-.6-.6z" class="color3c4150 svgShape"></path><path fill="#75819e" d="M72.8 80.9c-.1.2 0 .4 0 .5h.7v-.5s0-.3-.1-.5c-.3 0-.5.2-.6.5z" class="color75819e svgShape"></path><path fill="#3c4150" d="m61.8 55.1-.1.8c-.3-.1-.4-.5-.4-.8h.5zM71.9 54.6v.7c.4 0 .4-.7.4-1l-.4.3z" class="color3c4150 svgShape"></path><path fill="#C03E7A" d="M73.1 78.3c0 .2-.1.3-.3.3h-2.7c-.1 0-.3-.1-.3-.2-3.9-22.8-2.7-15.5-3-17.3l-3.3 17.2c0 .3-.3.5-.6.5l-2.3-.1c-.3 0-.6-.3-.6-.6L61.6 54c14.1.1 9.3.1 10.3.1 2 40.8.6 11 1.2 24.2z" class="color67db8a svgShape"></path><path fill="#f6e6d9" d="M69.6 36.9c.1.2-3.1.4-3.1.4l-.2-1.6s-.6.1-1.4 0c-.4 0-.5-.8-.5-1.7-.2.1-.4.1-.4-.1 0-.4.5-1.1.5-1.1.1-1 .4-1.9.5-2 1.5-1.6 4.7-.2 4.5 1.8-.3 2 0 4 .1 4.3z" class="color8fdaba svgShape"></path><path fill="#f5f5f5" d="M72.4 38.4c-3-.9-6.5-.9-9.3.1l-4.9 1.4c-.3.1-.7 0-.9-.3L54 36.3c-.1-.2-1.9 1.3-1.8 1.4 0 0 3 5.4 4.9 5.9 1.2.3 3.6-.4 4.9-.8l-.5 12.3c1.8-.3 10.1 1.4 10.9-.3l.6-13.1" class="colorf5f5f5 svgShape"></path><path fill="#3c4150" d="M53.8 36.8c-.1.2-.3.4-.5.5-.3.2-.6.4-.8.4-.2 0-.3 0-.4-.1-.1-.1-.1-.2 0-.4s.3-.5.6-.7c.3-.2.6-.4.8-.4.2 0 .3 0 .4.1.1.2 0 .4-.1.6z" class="color3c4150 svgShape"></path><path fill="#f6e6d9" d="M53.8 36.8c-.1.2-.3.4-.5.5-.3.2-.6.4-.8.4l-.3-.5c-1.1-.6-2.2-2.2-1.4-2.5-.1-.4.3-.4.3-.4 0-.5.5-.3.5-.3l-.1-.3-.6-1.1c-.1-.3 0-.6.2-.5.5.4 1 1.3 1.5 2.1v-.1c0-.3.2-.6.4-.6.3 0 .6 1.8.6 2.5v.2c-.1.3 0 .5.2.6z" class="color8fdaba svgShape"></path><path fill="#3c4150" d="m52.6 35-.1-.7v-.1h.1v.8c.1.1 0 .1 0 0zM51 35.6c-.2-.6-.4-.7-.4-.7v-.1c0-.1 0 0 .1 0 0 0 .2.2.3.8.2 0 .1.1 0 0zM51.4 35.2c-.2-.6-.4-.7-.4-.7v-.1h.1c-.1 0 .1.1.3.8.1 0 0 0 0 0zM51.9 34.9c-.2-.6-.4-.7-.4-.7v-.1h.1s.2.2.3.8c.1 0 0 .1 0 0zM63.6 31.1c-.1-3.8 5.3-1.1 5.3-1.1 2.9-1.5 1.7 4.4 1.1 5.2-.3.3-1.6.5-2.4.3-.2-.1-.4-.3-.4-.5 0-.7.3-2.1-.5-2.2-.4 0-.4.9-.4 1.2h-.2v-.9c-.8-.2-.3-.8-.3-.8s-2.2-.3-2.2-1.2zM66.3 35.8c0-.1 0-.1 0 0 .2-.1.5-.2.7-.3h.1v.1c-.3.1-.5.2-.8.2zM64.4 34.5s0-.1 0 0c.2-.1.3-.2.5-.3h.1v.1c-.3.2-.5.2-.6.2z" class="color3c4150 svgShape"></path><path fill="#3c4150" d="M66.9 33.7c-.1-.1 0-.1 0 0 .1-.2.2-.4.1-.5v-.1h.1c.1.1.1.4 0 .6h-.2zm0-.1zM64.8 32.7c0 .1 0 .1.1.1s.1 0 .1-.1 0-.1-.1-.1c0 0 0 .1-.1.1zM65.3 32.6c-.1-.1-.2-.1-.4-.2v-.1h.1c.1.1.3.2.3.3.1 0 .1 0 0 0 .1 0 0 .1 0 0z" class="color3c4150 svgShape"></path><path fill="#c2c6c3" d="M66 37.3c-.1.1-.1.7-.1.7H70s.2-1.1-.2-1.3c-.4-.1-3.4.3-3.8.6z" class="colorc2c6c3 svgShape"></path><path fill="#3c4150" d="M66.9 61.1c-.1 0-.1-.1 0 0l.1-1h.1v.1l-.2.9z" class="color3c4150 svgShape"></path><path fill="#ffffff" d="M70.9 58c0 .1-.1 1.5-.1 1.4-.1.6-.6 1.1-1.2 1.1s-1-.4-1-1c0-.1 0-.1.1-1.5h2.2zM65.7 57.9c0 .1-.1 1.5-.1 1.4-.1.6-.6 1.1-1.2 1.1s-1-.4-1-1c0-.1 0-.1.1-1.5h2.2z" class="colorfff svgShape"></path><path fill="#3c4150" d="M61.8 42.9c0-.1 0-.1 0 0l.8-.4h.1v.1l-.9.3z" class="color3c4150 svgShape"></path><path fill="#c2c6c3" d="m73 53.6-.7.8.1-4.6z" opacity=".5" class="colorc2c6c3 svgShape"></path><path fill="#3c4150" d="m52.1 37.7 2.3 5.5-.1-2z" opacity=".2" class="color3c4150 svgShape"></path></svg></g></svg>